# xmcd
#
# Track frame offsets:
#	150
#	31317
#	51107
#	66587
#	108397
#	133427
#	149180
#	199302
#	218077
#
# Disc length: 3035 seconds
#
# Revision: 7
# Processed by: cddbd v1.5.2PL0 Copyright (c) Steve Scherf et al.
# Submitted via: audiograbber 1.83.01
#
DISCID=9b0bd909
DTITLE=Bloomfield, Kooper, Stills - Super Session
DYEAR=1968
DGENRE=Rock
TTITLE0=Mike Bloomfield - Al Kooper - Albert's Shuffle
TTITLE1=Mike Bloomfield - Al Kooper - Stop
TTITLE2=Mike Bloomfield - Al Kooper - Man's Temptation
TTITLE3=Mike Bloomfield - Al Kooper - His Holy Modal Majesty
TTITLE4=Mike Bloomfield - Al Kooper - Really
TTITLE5=Stephen Stills - Al Kooper - It Takes A Lot To Laugh, It Takes A Train 
TTITLE5=To Cry
TTITLE6=Stephen Stills - Al Kooper - Season Of The Witch
TTITLE7=Stephen Stills - Al Kooper - You Don't Love Me
TTITLE8=Stephen Stills - Al Kooper - Harvey's Tune
EXTD=Label: Columbia Records - CBS Inc.\nCK 9701
EXTT0=
EXTT1=
EXTT2=
EXTT3=
EXTT4=
EXTT5=
EXTT6=
EXTT7=
EXTT8=
PLAYORDER=
